<svg width="130" height="130" viewBox="0 0 130 130" xmlns="http://www.w3.org/2000/svg" stroke="#fff">
    <g fill="none" fill-rule="evenodd">
      <circle fill="#2e5066" fill-opacity=".9" stroke-width="0" cx="65" cy="65" r="60" />
      <circle stroke-opacity=".5" stroke-width="5" cx="65" cy="65" r="62" />
      <path fill="none" stroke="#fff" stroke-width="5" d="M65 2 a61 61 0 0 1 61 61" >
        <animateTransform
                  attributeName="transform"
                  type="rotate"
                  from="0 64 64"
                  to="360 64 64"
                  dur="1s"
                  repeatCount="indefinite"/>
      </path>
      <g transform="translate(1 1)" stroke-width="2">
        <path fill="#fff" stroke-width="0" d="M25.6,70.7c-0.6,0.3-1.2,0.5-2,0.7c-0.7,0.2-1.6,0.3-2.6,0.3c-0.9,0-1.7-0.1-2.5-0.4c-0.7-0.3-1.4-0.7-1.9-1.3c-0.5-0.5-0.9-1.2-1.2-2c-0.3-0.8-0.4-1.7-0.4-2.6c0-1.1,0.2-2.2,0.6-3.4c0.4-1.1,1-2.1,1.8-3c0.8-0.9,1.7-1.6,2.8-2.1c1.1-0.5,2.4-0.8,3.9-0.8c0.7,0,1.4,0.1,2,0.2c0.7,0.2,1.4,0.4,2.1,0.8L27,59.8c-0.6-0.3-1.1-0.5-1.6-0.6c-0.5-0.1-1-0.2-1.5-0.2c-0.8,0-1.6,0.2-2.2,0.5c-0.7,0.3-1.2,0.8-1.7,1.4c-0.5,0.6-0.8,1.2-1.1,2c-0.2,0.8-0.4,1.5-0.4,2.4c0,1.3,0.3,2.2,0.8,2.8c0.6,0.6,1.4,0.9,2.4,0.9c0.7,0,1.3-0.1,1.9-0.2c0.6-0.1,1.1-0.3,1.6-0.6L25.6,70.7z"/>
        <path fill="#fff" stroke-width="0" d="M35.1,56.4c0.1,0.4,0.2,0.9,0.3,1.7c0.1,0.7,0.3,1.5,0.4,2.4c0.2,0.9,0.3,1.7,0.5,2.6c0.2,0.9,0.3,1.7,0.4,2.5c0.5-0.7,1-1.6,1.6-2.4c0.6-0.9,1.1-1.7,1.7-2.6c0.6-0.8,1.1-1.6,1.6-2.3c0.5-0.7,0.9-1.3,1.3-1.8h3c-0.1,1-0.2,2.1-0.4,3.4c-0.2,1.2-0.4,2.5-0.6,3.9c-0.2,1.3-0.4,2.7-0.7,4c-0.2,1.3-0.5,2.6-0.7,3.8h-3.3c0.3-1.5,0.6-3.1,1-4.8c0.3-1.7,0.7-3.4,0.9-5.2c-0.4,0.6-0.8,1.3-1.3,2c-0.5,0.7-0.9,1.5-1.4,2.2c-0.5,0.7-0.9,1.5-1.3,2.1c-0.4,0.7-0.8,1.3-1.1,1.7h-2.5c-0.1-0.4-0.2-1-0.3-1.6c-0.1-0.7-0.2-1.4-0.3-2.1s-0.2-1.5-0.4-2.2c-0.1-0.8-0.3-1.4-0.4-2c-0.6,1.7-1.1,3.5-1.5,5.2c-0.5,1.7-0.9,3.3-1.3,4.8h-3.3c0.3-1.2,0.7-2.4,1.1-3.8c0.4-1.3,0.8-2.7,1.2-4c0.4-1.3,0.8-2.6,1.3-3.9c0.4-1.2,0.8-2.4,1.2-3.3H35.1z"/>
        <path fill="#fff" stroke-width="0" d="M51,68.9c0.3,0,0.7,0,1-0.1c0.3-0.1,0.6-0.1,0.9-0.3c0.3-0.1,0.5-0.3,0.6-0.6c0.2-0.2,0.2-0.5,0.2-0.9c0-0.3-0.1-0.5-0.2-0.7c-0.2-0.2-0.4-0.4-0.6-0.6c-0.2-0.2-0.5-0.3-0.8-0.5c-0.3-0.1-0.6-0.3-0.9-0.5c-0.4-0.2-0.8-0.5-1.1-0.7c-0.3-0.3-0.6-0.6-0.9-0.9c-0.2-0.3-0.4-0.7-0.6-1.1c-0.1-0.4-0.2-0.9-0.2-1.4c0-0.7,0.1-1.3,0.4-1.8c0.3-0.6,0.6-1.1,1.1-1.5c0.5-0.4,1.1-0.7,1.9-1c0.7-0.2,1.6-0.4,2.6-0.4c0.5,0,0.9,0,1.3,0.1c0.4,0.1,0.8,0.2,1.2,0.3c0.4,0.1,0.7,0.2,1,0.4c0.3,0.2,0.6,0.3,0.8,0.4l-1.4,2.5c-0.4-0.3-0.8-0.5-1.3-0.7c-0.5-0.2-1.1-0.3-1.7-0.3c-0.3,0-0.6,0-1,0.1c-0.3,0.1-0.6,0.2-0.8,0.3c-0.2,0.1-0.4,0.3-0.6,0.5c-0.1,0.2-0.2,0.5-0.2,0.8c0,0.3,0.1,0.5,0.2,0.7c0.1,0.2,0.2,0.4,0.4,0.5c0.2,0.1,0.4,0.3,0.6,0.4c0.2,0.1,0.5,0.2,0.7,0.4c0.4,0.2,0.9,0.5,1.3,0.7c0.4,0.3,0.8,0.6,1.1,0.9c0.3,0.3,0.6,0.7,0.8,1.2c0.2,0.4,0.3,0.9,0.3,1.5c0,0.8-0.2,1.5-0.5,2.1c-0.3,0.6-0.7,1.1-1.3,1.5c-0.5,0.4-1.2,0.7-2,0.9c-0.8,0.2-1.6,0.3-2.5,0.3c-0.6,0-1.2-0.1-1.7-0.2c-0.5-0.1-1-0.2-1.4-0.4c-0.4-0.1-0.8-0.3-1.1-0.4c-0.3-0.2-0.6-0.3-0.7-0.4l1.4-2.6c0.2,0.1,0.4,0.2,0.6,0.4c0.2,0.1,0.5,0.3,0.8,0.4c0.3,0.1,0.6,0.2,1,0.3C50.2,68.8,50.6,68.9,51,68.9z"/>
        <path fill="#fff" stroke-width="0" d="M78.7,62.2c0,1.5-0.2,2.8-0.7,3.9c-0.5,1.2-1.2,2.1-2,2.9c-0.9,0.8-2,1.4-3.2,1.8c-1.3,0.4-2.7,0.6-4.3,0.6c-0.6,0-1.3,0-2.1-0.1c-0.8-0.1-1.6-0.2-2.3-0.3l3.5-14.5c0.8-0.2,1.6-0.3,2.4-0.3c0.8-0.1,1.4-0.1,2-0.1c1.1,0,2,0.1,2.9,0.4c0.8,0.3,1.6,0.7,2.1,1.2c0.6,0.5,1,1.2,1.3,1.9C78.6,60.5,78.7,61.3,78.7,62.2z M68,68.7c0.2,0,0.3,0,0.5,0c0.2,0,0.4,0,0.7,0c0.9,0,1.8-0.1,2.5-0.4c0.8-0.3,1.4-0.7,1.9-1.2c0.5-0.5,0.9-1.2,1.2-2c0.3-0.8,0.4-1.7,0.4-2.6c0-0.5-0.1-1-0.2-1.4c-0.1-0.4-0.3-0.8-0.6-1.1c-0.3-0.3-0.7-0.5-1.1-0.7c-0.5-0.2-1-0.2-1.7-0.2c-0.4,0-0.9,0-1.3,0.1L68,68.7z"/>
        <path fill="#fff" stroke-width="0" d="M82.7,71.4h-3.2L82.2,60h3.2L82.7,71.4z M84.2,58.6c-0.4,0-0.9-0.1-1.2-0.4c-0.4-0.3-0.5-0.7-0.5-1.2c0-0.3,0.1-0.6,0.2-0.9c0.1-0.3,0.3-0.5,0.5-0.7c0.2-0.2,0.4-0.3,0.7-0.5c0.3-0.1,0.6-0.2,0.9-0.2c0.4,0,0.9,0.1,1.2,0.4c0.4,0.3,0.5,0.7,0.5,1.2c0,0.3-0.1,0.6-0.2,0.9c-0.1,0.3-0.3,0.5-0.5,0.7c-0.2,0.2-0.4,0.3-0.7,0.5C84.8,58.6,84.5,58.6,84.2,58.6z"/>
        <path fill="#fff" stroke-width="0" d="M89.3,69.1c0.7,0,1.2-0.1,1.5-0.3c0.3-0.2,0.4-0.4,0.4-0.7c0-0.2,0-0.3-0.1-0.4c-0.1-0.1-0.1-0.2-0.2-0.3c-0.1-0.1-0.3-0.2-0.5-0.3c-0.2-0.1-0.5-0.2-0.8-0.4c-0.4-0.2-0.7-0.3-1-0.5c-0.3-0.2-0.6-0.4-0.8-0.6s-0.4-0.5-0.6-0.9c-0.1-0.3-0.2-0.7-0.2-1.2c0-1.2,0.4-2.1,1.3-2.8c0.9-0.7,2.1-1,3.8-1c0.8,0,1.5,0.1,2.1,0.3c0.6,0.2,1.1,0.4,1.5,0.6l-1.1,2.4c-0.3-0.2-0.7-0.3-1.2-0.5c-0.5-0.1-0.9-0.2-1.4-0.2c-0.2,0-0.4,0-0.6,0c-0.2,0-0.4,0.1-0.5,0.1c-0.2,0.1-0.3,0.2-0.4,0.3c-0.1,0.1-0.2,0.3-0.2,0.5c0,0.3,0.1,0.5,0.3,0.6c0.2,0.1,0.5,0.3,0.9,0.5c0.6,0.3,1,0.5,1.4,0.8c0.4,0.2,0.7,0.5,0.9,0.7c0.2,0.3,0.4,0.6,0.5,0.9c0.1,0.3,0.2,0.7,0.2,1.2c0,0.5-0.1,0.9-0.3,1.4c-0.2,0.4-0.5,0.8-0.9,1.2c-0.4,0.3-1,0.6-1.6,0.8c-0.6,0.2-1.4,0.3-2.3,0.3c-0.6,0-1.1,0-1.5-0.1c-0.5-0.1-0.9-0.2-1.2-0.3c-0.3-0.1-0.6-0.2-0.9-0.3c-0.2-0.1-0.4-0.2-0.6-0.3l1.1-2.5c0.2,0.1,0.6,0.3,1.1,0.5C87.9,69,88.5,69.1,89.3,69.1z"/>
        <path fill="#fff" stroke-width="0" d="M100.7,71.6c-1,0-1.8-0.1-2.4-0.4c-0.6-0.3-1-0.6-1.3-1.1c-0.3-0.5-0.4-1-0.4-1.6c0-0.6,0.1-1.2,0.2-1.9l2.7-11.5l3.4-0.5l-3,12.5c-0.1,0.3-0.1,0.5-0.1,0.7c0,0.2,0,0.4,0.1,0.6c0.1,0.2,0.2,0.3,0.4,0.4c0.2,0.1,0.5,0.2,0.9,0.2L100.7,71.6z"/>
        <path fill="#fff" stroke-width="0" d="M115,60c-0.4,1.1-0.8,2.1-1.2,3.1c-0.4,1-0.8,1.9-1.3,2.7c-0.4,0.9-0.9,1.7-1.4,2.5c-0.5,0.8-1,1.6-1.5,2.3c-0.4,0.6-0.8,1.1-1.2,1.7c-0.4,0.6-0.9,1.1-1.4,1.6c-0.5,0.5-1.1,0.8-1.7,1.1c-0.6,0.3-1.4,0.4-2.2,0.4c-0.5,0-0.9,0-1.3-0.1c-0.4-0.1-0.7-0.2-1-0.4l1-2.5c0.3,0.1,0.5,0.2,0.8,0.3c0.2,0.1,0.5,0.1,0.8,0.1c0.5,0,1-0.2,1.4-0.5c0.5-0.3,0.8-0.8,1.1-1.3c-0.4-1.4-0.7-3.1-1-4.8c-0.3-1.8-0.5-3.8-0.6-6.1h3.3c0,0.6,0,1.2,0.1,1.9c0,0.7,0.1,1.4,0.2,2c0.1,0.7,0.1,1.4,0.2,2c0.1,0.6,0.2,1.2,0.2,1.8c0.7-1,1.3-2.2,1.8-3.5c0.5-1.3,1-2.7,1.5-4.2H115z"/>
      </g>
    </g>
</svg>